<svg width="20" height="21" viewBox="0 0 20 21" fill="none" xmlns="http://www.w3.org/2000/svg">
<rect opacity="0.01" y="0.5" width="20" height="20" fill="black"/>
<path fill-rule="evenodd" clip-rule="evenodd" d="M16.3426 7.03846H16.0311C15.7509 3.93937 13.0913 1.5 9.85882 1.5C6.6263 1.5 3.96678 3.93937 3.68651 7.03846H3.65744C2.1917 7.03846 1 8.20724 1 9.6448V11.0559C1 12.4934 2.1917 13.6622 3.65744 13.6622H5.42837V7.58213C5.42837 5.18756 7.41523 3.23891 9.85675 3.23891C12.2983 3.23891 14.2872 5.18552 14.2872 7.58213V11.9253C14.2872 14.0328 12.7467 15.7921 10.7121 16.1851C10.4754 15.9692 10.1619 15.8348 9.81315 15.8348C9.08028 15.8348 8.48443 16.4192 8.48443 17.138C8.48443 17.8568 9.08028 18.4412 9.81315 18.4412C10.2471 18.4412 10.6291 18.2335 10.872 17.9179C13.2201 17.5371 15.128 15.8613 15.7986 13.6622H16.3426C17.8083 13.6622 19 12.4934 19 11.0559V9.6448C19 8.20724 17.8083 7.03846 16.3426 7.03846ZM2.77301 11.0559V9.6448C2.77301 9.16629 3.16955 8.77534 3.65952 8.77534V11.9253C3.16955 11.9253 2.77301 11.5364 2.77301 11.0559ZM16.3405 11.9253C16.8305 11.9253 17.227 11.5344 17.227 11.0559V9.6448C17.227 9.16425 16.8284 8.77534 16.3405 8.77534V11.9253Z" fill="#6C7BA8"/>
<rect x="7" y="10.5" width="6" height="2" rx="1" fill="#EF3C3C"/>
</svg>
