<svg height="16" viewBox="0 0 26 16" width="26" xmlns="http://www.w3.org/2000/svg" xmlns:xlink="http://www.w3.org/1999/xlink"><defs><linearGradient id="a" x1="110.619%" x2="-24.986%" y1="50%" y2="50%"><stop offset="0" stop-color="#ee3939"/><stop offset="1" stop-color="#ff8d8d"/></linearGradient><path id="b" d="m18 0c4.418278 0 8 3.581722 8 8s-3.581722 8-8 8c-.6676317 0-1.316162-.0817824-1.9361195-.2358755l-.0027186.0009983-16.0611619-3.7651228 11.0703501.00016-.0013501-.00116-11.069.001v-8l11.0703571-.000172c.0001904-.00032925.0003809-.00065848.0005714-.0009877l-11.0709285.0011597 15.9635988-3.73850403c.6501836-.17063332 1.3326814-.26149597 2.0364012-.26149597z"/><mask id="c" fill="#fff"><use fill="#fff" fill-rule="evenodd" xlink:href="#b"/></mask></defs><g fill="none" fill-rule="evenodd"><use fill="url(#a)" xlink:href="#b"/><path d="m-74.4412491-1-7.5587509 15h-2l7.5587509-15zm4 0-7.5587509 15h-2l7.5587509-15zm4 0-7.5587509 15h-2l7.5587509-15zm4 0-7.5587509 15h-2l7.5587509-15zm4 0-7.5587509 15h-2l7.5587509-15zm4 0-7.5587509 15h-2l7.5587509-15zm4 0-7.5587509 15h-2l7.5587509-15zm4 0-7.5587509 15h-2l7.5587509-15zm4 0-7.5587509 15h-2l7.5587509-15zm4 0-7.5587509 15h-2l7.5587509-15zm4 0-7.5587509 15h-2l7.5587509-15zm4 0-7.5587509 15h-2l7.5587509-15zm4 0-7.5587509 15h-2l7.5587509-15zm4 0-7.5587509 15h-2l7.5587509-15zm4 0-7.5587509 15h-2l7.5587509-15zm4 0-7.5587509 15h-2l7.5587509-15zm4 0-7.5587509 15h-2l7.5587509-15zm3.99999997 0-7.55875087 15h-2l7.55875087-15zm4 0-7.55875087 15h-2l7.55875087-15zm4 0-7.55875087 15h-2l7.55875087-15z" fill="#d2b79c" mask="url(#c)" opacity=".24"/><g transform="translate(11 3)"><g transform="translate(2.639)"><circle cx="5.351" cy="1" fill="#fff" r="1"/><path d="m.739 4.854.501-1.824 1.961-1.03 2.625.817.533 1.919 1.515-1.309" stroke="#fff" stroke-linecap="round" stroke-linejoin="round"/><path d="m0 8.55 2.197-.55 1.259-1.287-.929-.62 2.301.62.305 2.013" stroke="#fff" stroke-linecap="round" stroke-linejoin="round"/><path d="m2.599 2.008 2.63-.034-.018 4.342-2.629.033z" fill="#fff" transform="matrix(.96592583 .25881905 -.25881905 .96592583 1.210265 -.868872)"/></g><g fill="#fff"><circle cx="9.991" cy="9" r="1"/><path d="m1.392.212h3.502v.788z"/><path d="m.524 1.212h3.37l-.255.494-3.639-.204z"/></g></g></g></svg>