<svg height="36" viewBox="0 0 36 36" width="36" xmlns="http://www.w3.org/2000/svg" xmlns:xlink="http://www.w3.org/1999/xlink"><linearGradient id="a" x1="0%" x2="100%" y1="0%" y2="100%"><stop offset="0" stop-color="#9be5ff"/><stop offset="1" stop-color="#1e95f5"/></linearGradient><g fill="none" fill-rule="evenodd"><path d="m0 0h36v36h-36z" fill="url(#a)" opacity="0"/><g transform="translate(6 4.292)"><path d="m20.8672413.67528634-6.9269027 6.99140993c-1.443965 1.443965-3.7221537 1.52576123-5.18553341.22170522l-7.65430013-7.18086152z"/><path d="m21.456 1 .0566268.05573299-6.9293548 6.99387352c-1.7850733 1.78507326-4.65024911 1.82622304-6.38256954.09336069l-7.50070246-7.03583715.1-.10713005h1.977l6.59392343 6.18504159c1.11738767.990868 2.83792307.97059297 4.00081277-.05425884l.1484234-.13937282 5.9358404-5.99140993z" fill="#6c7ba8" fill-rule="nonzero"/><rect height="26" rx="3" stroke="#6c7ba8" stroke-width="1.5" width="22" y=".708"/><path d="m8.41602515.20963703c.31331501.20887668.41876547.61270184.26272355.94333637l-.05471098.0967265-1.72303772 2.58389515 1.849.0000797c.41421356 0 .75.33578644.75.75 0 .41421357-.33578644.75-.75.75h-2.5v1.4999203l2.5.0000797c.41421356 0 .75.33578644.75.75 0 .41421357-.33578644.75-.75.75l-2.5-.0000797v1.5000797c0 .41421355-.33578644.75000005-.75.75000005s-.75-.3357865-.75-.75000005v-1.5000797l-2.5.0000797c-.41421356 0-.75-.33578643-.75-.75 0-.41421356.33578644-.75.75-.75l2.5-.0000797v-1.4999203h-2.5c-.41421356 0-.75-.33578643-.75-.75 0-.41421356.33578644-.75.75-.75l1.848-.0000797-1.72203772-2.58389515c-.22976435-.34464651-.13663394-.81029852.20801257-1.04006287.31331502-.20887667.72663457-.15089819.97181955.12030764l.06824332.08770494 1.87596228 2.81235039 1.87596228-2.81235039c.22976434-.34464652.69541635-.43777692 1.04006287-.20801258z" fill="#6c7ba8" transform="translate(5.5 11.874)"/></g></g></svg>