<svg height="36" viewBox="0 0 36 36" width="36" xmlns="http://www.w3.org/2000/svg" xmlns:xlink="http://www.w3.org/1999/xlink"><linearGradient id="a" x1="0%" x2="100%" y1="0%" y2="100%"><stop offset="0" stop-color="#9be5ff"/><stop offset="1" stop-color="#1e95f5"/></linearGradient><g fill="none" fill-rule="evenodd"><path d="m0 0h36v36h-36z" fill="url(#a)" opacity="0"/><g transform="translate(4 4)"><rect fill="#6c7ba8" height="1.5" rx=".75" width="21" x="3" y="27"/><path d="m14.4965458.88581845 10.4393269 9.27940175c.4334219.3852639.4724617 1.0489399.0871978 1.4823618-.1992558.2241628-.4848601.352418-.7847798.352418h-6.2382907v3h-9v-3h-6.23829071c-.57989899 0-1.05-.470101-1.05-1.05 0-.2999197.12825519-.585524.35241797-.7847798l10.43932694-9.27940175c.5683291-.50518136 1.4247625-.50518136 1.9930916 0z"/><rect fill="#6c7ba8" height="1.5" rx=".75" width="9.5" x="9" y="15"/><path d="m14.4965458.88581845 10.4393269 9.27940175c.4334219.3852639.4724617 1.0489399.0871978 1.4823618-.1992558.2241628-.4848601.352418-.7847798.352418h-6.2382907v6 3.875c0 .6213203-.5036797 1.125-1.125 1.125h-6.75c-.62132034 0-1.125-.5036797-1.125-1.125v-3.875-6h-6.23829071c-.57989899 0-1.05-.470101-1.05-1.05 0-.2999197.12825519-.585524.35241797-.7847798l10.43932694-9.27940175c.5683291-.50518136 1.4247625-.50518136 1.9930916 0z" stroke="#6c7ba8" stroke-width="1.5"/></g></g></svg>